<mxfile host="app.diagrams.net" agent="Mozilla/5.0 (X11; Linux x86_64; rv:142.0) Gecko/20100101 Firefox/142.0" version="28.2.3">
  <diagram name="Page-1" id="8ehOt2pSmsST38pCKkxR">
    <mxGraphModel dx="643" dy="642" grid="1" gridSize="10" guides="1" tooltips="1" connect="1" arrows="1" fold="1" page="1" pageScale="1" pageWidth="850" pageHeight="1100" math="0" shadow="0">
      <root>
        <mxCell id="0" />
        <mxCell id="1" parent="0" />
        <mxCell id="aDdEPsnaFpq0O0XISwsh-6" value="" style="shape=partialRectangle;whiteSpace=wrap;html=1;bottom=1;right=1;left=1;top=0;routingCenterX=-0.5;rotation=-180;fillColor=none;" vertex="1" parent="1">
          <mxGeometry x="120" y="40" width="160" height="40" as="geometry" />
        </mxCell>
        <mxCell id="aDdEPsnaFpq0O0XISwsh-1" value="SCv8v2" style="rounded=0;whiteSpace=wrap;html=1;fillColor=none;" vertex="1" parent="1">
          <mxGeometry x="120" y="200" width="160" height="40" as="geometry" />
        </mxCell>
        <mxCell id="aDdEPsnaFpq0O0XISwsh-2" value="Default microcode" style="rounded=0;whiteSpace=wrap;html=1;fillColor=none;" vertex="1" parent="1">
          <mxGeometry x="120" y="160" width="160" height="40" as="geometry" />
        </mxCell>
        <mxCell id="aDdEPsnaFpq0O0XISwsh-20" style="edgeStyle=orthogonalEdgeStyle;rounded=0;orthogonalLoop=1;jettySize=auto;html=1;exitX=0;exitY=0.5;exitDx=0;exitDy=0;entryX=0;entryY=0.5;entryDx=0;entryDy=0;curved=1;" edge="1" parent="1" source="aDdEPsnaFpq0O0XISwsh-3" target="aDdEPsnaFpq0O0XISwsh-2">
          <mxGeometry relative="1" as="geometry">
            <mxPoint x="90" y="180" as="targetPoint" />
            <Array as="points">
              <mxPoint x="90" y="140" />
              <mxPoint x="90" y="180" />
            </Array>
          </mxGeometry>
        </mxCell>
        <mxCell id="aDdEPsnaFpq0O0XISwsh-21" value="Assembler" style="edgeLabel;html=1;align=center;verticalAlign=middle;resizable=0;points=[];labelBackgroundColor=none;" vertex="1" connectable="0" parent="aDdEPsnaFpq0O0XISwsh-20">
          <mxGeometry x="-0.1467" relative="1" as="geometry">
            <mxPoint x="-22" y="-13" as="offset" />
          </mxGeometry>
        </mxCell>
        <mxCell id="aDdEPsnaFpq0O0XISwsh-3" value="ISA" style="rounded=0;whiteSpace=wrap;html=1;fillColor=none;" vertex="1" parent="1">
          <mxGeometry x="120" y="120" width="160" height="40" as="geometry" />
        </mxCell>
        <mxCell id="aDdEPsnaFpq0O0XISwsh-16" style="edgeStyle=orthogonalEdgeStyle;rounded=0;orthogonalLoop=1;jettySize=auto;html=1;exitX=1;exitY=0.5;exitDx=0;exitDy=0;entryX=1;entryY=0.5;entryDx=0;entryDy=0;curved=1;" edge="1" parent="1" source="aDdEPsnaFpq0O0XISwsh-4" target="aDdEPsnaFpq0O0XISwsh-3">
          <mxGeometry relative="1" as="geometry">
            <mxPoint x="290" y="140" as="targetPoint" />
            <Array as="points">
              <mxPoint x="310" y="100" />
              <mxPoint x="310" y="140" />
            </Array>
          </mxGeometry>
        </mxCell>
        <mxCell id="aDdEPsnaFpq0O0XISwsh-18" value="SLSP compiler" style="edgeLabel;html=1;align=center;verticalAlign=middle;resizable=0;points=[];labelBackgroundColor=none;" vertex="1" connectable="0" parent="aDdEPsnaFpq0O0XISwsh-16">
          <mxGeometry x="-0.0714" y="-2" relative="1" as="geometry">
            <mxPoint x="12" y="-26" as="offset" />
          </mxGeometry>
        </mxCell>
        <mxCell id="aDdEPsnaFpq0O0XISwsh-4" value="SLSP" style="rounded=0;whiteSpace=wrap;html=1;fillColor=none;" vertex="1" parent="1">
          <mxGeometry x="200" y="80" width="80" height="40" as="geometry" />
        </mxCell>
        <mxCell id="aDdEPsnaFpq0O0XISwsh-7" value="" style="shape=partialRectangle;whiteSpace=wrap;html=1;bottom=1;right=1;left=1;top=0;routingCenterX=-0.5;fillColor=none;" vertex="1" parent="1">
          <mxGeometry x="120" y="80" width="80" height="40" as="geometry" />
        </mxCell>
        <mxCell id="aDdEPsnaFpq0O0XISwsh-9" value="Operating System" style="text;html=1;align=center;verticalAlign=middle;whiteSpace=wrap;rounded=0;" vertex="1" parent="1">
          <mxGeometry x="145" y="45" width="110" height="30" as="geometry" />
        </mxCell>
      </root>
    </mxGraphModel>
  </diagram>
</mxfile>
